<svg width="73" height="6" viewBox="0 0 73 6" fill="none" xmlns="http://www.w3.org/2000/svg">
<path d="M2.31044 4.72747C1.88 4.72747 1.48754 4.62566 1.13306 4.42206C0.782806 4.21421 0.506397 3.93425 0.303838 3.58219C0.101279 3.23012 0 2.84411 0 2.42418C0 2 0.0970595 1.61188 0.291178 1.25981C0.489517 0.903499 0.763816 0.623542 1.11407 0.419936C1.46433 0.212089 1.86312 0.108165 2.31044 0.108165C2.66914 0.108165 2.97719 0.165429 3.23461 0.279957C3.49625 0.390244 3.72835 0.566278 3.93091 0.808059L3.30424 1.35525C3.03838 1.07529 2.70712 0.935313 2.31044 0.935313C2.03192 0.935313 1.78716 1.00318 1.57616 1.13892C1.36516 1.27041 1.20269 1.45069 1.08875 1.67975C0.974815 1.90456 0.917845 2.1527 0.917845 2.42418C0.917845 2.69565 0.974815 2.9438 1.08875 3.16861C1.20691 3.39343 1.37149 3.57158 1.58249 3.70308C1.79771 3.83457 2.04669 3.90032 2.32943 3.90032C2.74299 3.90032 3.08058 3.7561 3.34222 3.46766L3.98788 4.02121C3.81064 4.23754 3.57854 4.40933 3.29158 4.53659C3.00884 4.66384 2.6818 4.72747 2.31044 4.72747Z" fill="black"/>
<path d="M5.72773 3.95122C5.90919 3.95122 6.06955 3.9088 6.20881 3.82397C6.35229 3.73913 6.46201 3.6246 6.53796 3.48038C6.61392 3.33616 6.6519 3.17709 6.6519 3.00318C6.6519 2.82927 6.61392 2.6702 6.53796 2.52598C6.46201 2.37752 6.35229 2.26087 6.20881 2.17603C6.06955 2.08696 5.90919 2.04242 5.72773 2.04242C5.55049 2.04242 5.39224 2.08696 5.25298 2.17603C5.11372 2.26087 5.00611 2.3754 4.93015 2.51962C4.85419 2.66384 4.81621 2.82291 4.81621 2.99682C4.81621 3.16649 4.85419 3.32556 4.93015 3.47402C5.01033 3.61824 5.11794 3.73489 5.25298 3.82397C5.39224 3.9088 5.55049 3.95122 5.72773 3.95122ZM3.96167 3.00318C3.96167 2.68929 4.03341 2.40085 4.17689 2.13786C4.32459 1.87063 4.52293 1.65854 4.7719 1.50159C5.02088 1.34464 5.29307 1.26617 5.58847 1.26617C5.85855 1.26617 6.07588 1.31707 6.24046 1.41888C6.40926 1.52068 6.54007 1.66702 6.63291 1.8579V1.33616H7.48113V4.64475H6.6519V4.10392C6.55484 4.30329 6.42192 4.45811 6.25312 4.5684C6.08854 4.67444 5.86699 4.72747 5.58847 4.72747C5.29307 4.72747 5.02088 4.65111 4.7719 4.49841C4.52293 4.34146 4.32459 4.1315 4.17689 3.86851C4.03341 3.60551 3.96167 3.31707 3.96167 3.00318Z" fill="black"/>
<path d="M7.98886 0H8.84341V4.64475H7.98886V0Z" fill="black"/>
<path d="M9.80457 4.69565C9.65687 4.69565 9.53239 4.64687 9.43111 4.54931C9.33405 4.44751 9.28552 4.32662 9.28552 4.18664C9.28552 4.04666 9.33405 3.92789 9.43111 3.83033C9.53239 3.73277 9.65687 3.68399 9.80457 3.68399C9.95227 3.68399 10.0747 3.73277 10.1717 3.83033C10.2688 3.92789 10.3173 4.04666 10.3173 4.18664C10.3173 4.32662 10.2688 4.44751 10.1717 4.54931C10.0747 4.64687 9.95227 4.69565 9.80457 4.69565Z" fill="black"/>
<path d="M12.2741 4.72747C11.9238 4.72747 11.6136 4.65111 11.3435 4.49841C11.0777 4.34146 10.8709 4.1315 10.7232 3.86851C10.5797 3.60551 10.508 3.31283 10.508 2.99046C10.508 2.66808 10.5797 2.3754 10.7232 2.11241C10.8709 1.84942 11.0777 1.64157 11.3435 1.48887C11.6136 1.33192 11.9238 1.25345 12.2741 1.25345C12.8395 1.25345 13.2826 1.45493 13.6033 1.8579L12.9324 2.41145C12.8522 2.29268 12.7551 2.20148 12.6412 2.13786C12.5315 2.06999 12.4049 2.03606 12.2614 2.03606C12.0842 2.03606 11.928 2.08059 11.793 2.16967C11.6579 2.25451 11.5524 2.36904 11.4765 2.51326C11.4005 2.65748 11.3625 2.81654 11.3625 2.99046C11.3625 3.16013 11.4005 3.31919 11.4765 3.46766C11.5567 3.61188 11.6664 3.72853 11.8056 3.8176C11.9449 3.90244 12.1031 3.94486 12.2804 3.94486C12.5589 3.94486 12.7994 3.80912 13.002 3.53765L13.6413 4.10392C13.4641 4.30753 13.2657 4.46235 13.0463 4.5684C12.8269 4.67444 12.5695 4.72747 12.2741 4.72747Z" fill="black"/>
<path d="M15.3707 4.72747C15.0374 4.72747 14.7377 4.65111 14.4719 4.49841C14.206 4.34146 13.9971 4.1315 13.8452 3.86851C13.6933 3.60127 13.6173 3.31071 13.6173 2.99682C13.6173 2.68293 13.6933 2.39236 13.8452 2.12513C13.9971 1.8579 14.206 1.64793 14.4719 1.49523C14.7377 1.33828 15.0374 1.25981 15.3707 1.25981C15.7041 1.25981 16.0037 1.33828 16.2696 1.49523C16.5355 1.64793 16.7443 1.8579 16.8963 2.12513C17.0482 2.39236 17.1241 2.68293 17.1241 2.99682C17.1241 3.31071 17.0482 3.60127 16.8963 3.86851C16.7443 4.1315 16.5355 4.34146 16.2696 4.49841C16.0037 4.65111 15.7041 4.72747 15.3707 4.72747ZM14.4719 2.99682C14.4719 3.17073 14.5078 3.3298 14.5795 3.47402C14.6555 3.61824 14.761 3.73277 14.896 3.8176C15.0353 3.90244 15.1935 3.94486 15.3707 3.94486C15.548 3.94486 15.7041 3.90244 15.8392 3.8176C15.9784 3.73277 16.0839 3.61824 16.1557 3.47402C16.2316 3.3298 16.2696 3.17073 16.2696 2.99682C16.2696 2.82291 16.2316 2.66384 16.1557 2.51962C16.0797 2.3754 15.9742 2.26087 15.8392 2.17603C15.7041 2.08696 15.548 2.04242 15.3707 2.04242C15.1935 2.04242 15.0374 2.08696 14.9023 2.17603C14.7673 2.26087 14.6618 2.3754 14.5858 2.51962C14.5099 2.66384 14.4719 2.82291 14.4719 2.99682Z" fill="black"/>
<path d="M17.5024 1.33616H18.3442V1.81972C18.5173 1.44645 18.8528 1.25981 19.3507 1.25981C19.5828 1.25981 19.7917 1.31495 19.9774 1.42524C20.1673 1.53128 20.315 1.68399 20.4205 1.88335C20.5344 1.6755 20.6779 1.52068 20.8509 1.41888C21.0281 1.31283 21.256 1.25981 21.5345 1.25981C21.7709 1.25981 21.984 1.31707 22.1739 1.4316C22.3638 1.54189 22.5136 1.70095 22.6233 1.9088C22.733 2.11241 22.7879 2.34995 22.7879 2.62142V4.64475H21.9333V2.83139C21.9333 2.55567 21.8743 2.34995 21.7561 2.21421C21.6379 2.07847 21.4776 2.0106 21.275 2.0106C21.0598 2.0106 20.8931 2.07211 20.775 2.19512C20.661 2.31813 20.604 2.53022 20.604 2.83139V4.64475H19.7495V2.83139C19.7495 2.55567 19.6862 2.34995 19.5596 2.21421C19.433 2.07847 19.26 2.0106 19.0405 2.0106C18.8464 2.0106 18.684 2.08059 18.5531 2.22057C18.4223 2.35631 18.3569 2.55992 18.3569 2.83139V4.64475H17.5024V1.33616Z" fill="black"/>
<path d="M26.7379 4.8C26.4223 4.8 26.1315 4.72248 25.8656 4.56743C25.5996 4.40808 25.3877 4.19489 25.2299 3.92786C25.0766 3.66083 25 3.36797 25 3.04926C25 2.73055 25.0766 2.43769 25.2299 2.17066C25.3877 1.89933 25.5996 1.68398 25.8656 1.52463C26.1315 1.36528 26.4223 1.2856 26.7379 1.2856C27.0264 1.2856 27.2586 1.33728 27.4344 1.44065C27.6102 1.5397 27.7477 1.68398 27.8469 1.87349V0H28.7598V4.71602H27.8739V4.16689C27.7702 4.36931 27.6282 4.52651 27.4479 4.63849C27.2721 4.74616 27.0354 4.8 26.7379 4.8ZM25.9129 3.0428C25.9129 3.21507 25.9535 3.37658 26.0346 3.52732C26.1203 3.67376 26.2352 3.79219 26.3795 3.88264C26.5283 3.96878 26.6973 4.01184 26.8866 4.01184C27.0805 4.01184 27.2518 3.96878 27.4006 3.88264C27.5538 3.7965 27.6711 3.68022 27.7522 3.53378C27.8334 3.38735 27.8739 3.22584 27.8739 3.04926C27.8739 2.87268 27.8334 2.71117 27.7522 2.56474C27.6711 2.414 27.5538 2.29556 27.4006 2.20942C27.2518 2.11898 27.0805 2.07376 26.8866 2.07376C26.6973 2.07376 26.5283 2.11898 26.3795 2.20942C26.2307 2.29556 26.1158 2.41184 26.0346 2.55828C25.9535 2.70471 25.9129 2.86622 25.9129 3.0428Z" fill="#888888"/>
<path d="M31.04 4.8C30.6839 4.8 30.3638 4.72248 30.0798 4.56743C29.7958 4.40808 29.5727 4.19489 29.4104 3.92786C29.2481 3.65653 29.1669 3.36151 29.1669 3.0428C29.1669 2.72409 29.2481 2.42907 29.4104 2.15774C29.5727 1.88641 29.7958 1.67322 30.0798 1.51817C30.3638 1.35882 30.6839 1.27914 31.04 1.27914C31.3962 1.27914 31.7163 1.35882 32.0003 1.51817C32.2843 1.67322 32.5074 1.88641 32.6697 2.15774C32.832 2.42907 32.9132 2.72409 32.9132 3.0428C32.9132 3.36151 32.832 3.65653 32.6697 3.92786C32.5074 4.19489 32.2843 4.40808 32.0003 4.56743C31.7163 4.72248 31.3962 4.8 31.04 4.8ZM30.0798 3.0428C30.0798 3.21938 30.1181 3.38089 30.1948 3.52732C30.2759 3.67376 30.3886 3.79004 30.5329 3.87618C30.6817 3.96232 30.8507 4.00538 31.04 4.00538C31.2294 4.00538 31.3962 3.96232 31.5405 3.87618C31.6892 3.79004 31.8019 3.67376 31.8786 3.52732C31.9597 3.38089 32.0003 3.21938 32.0003 3.0428C32.0003 2.86622 31.9597 2.70471 31.8786 2.55828C31.7974 2.41184 31.6847 2.29556 31.5405 2.20942C31.3962 2.11898 31.2294 2.07376 31.04 2.07376C30.8507 2.07376 30.6839 2.11898 30.5396 2.20942C30.3954 2.29556 30.2827 2.41184 30.2015 2.55828C30.1204 2.70471 30.0798 2.86622 30.0798 3.0428Z" fill="#888888"/>
<path d="M35.0356 4.8C34.6614 4.8 34.3301 4.72248 34.0416 4.56743C33.7575 4.40808 33.5366 4.19489 33.3789 3.92786C33.2256 3.66083 33.1489 3.36366 33.1489 3.03634C33.1489 2.70902 33.2256 2.41184 33.3789 2.14482C33.5366 1.87779 33.7575 1.66676 34.0416 1.51171C34.3301 1.35236 34.6614 1.27268 35.0356 1.27268C35.6397 1.27268 36.113 1.47725 36.4557 1.88641L35.7389 2.44845C35.6532 2.32786 35.5495 2.23526 35.4278 2.17066C35.3106 2.10175 35.1753 2.06729 35.0221 2.06729C34.8327 2.06729 34.6659 2.11252 34.5217 2.20296C34.3774 2.2891 34.2647 2.40538 34.1836 2.55182C34.1024 2.69825 34.0618 2.85976 34.0618 3.03634C34.0618 3.20861 34.1024 3.37012 34.1836 3.52086C34.2692 3.66729 34.3864 3.78573 34.5352 3.87618C34.684 3.96232 34.853 4.00538 35.0424 4.00538C35.3399 4.00538 35.5969 3.86756 35.8132 3.59192L36.4962 4.16689C36.3069 4.37362 36.095 4.53082 35.8606 4.63849C35.6262 4.74616 35.3512 4.8 35.0356 4.8Z" fill="#888888"/>
<path d="M38.034 4.8C37.4435 4.8 36.9566 4.60404 36.5734 4.21211L37.1888 3.67591C37.4457 3.95155 37.7207 4.08937 38.0138 4.08937C38.1625 4.08937 38.2775 4.05707 38.3586 3.99246C38.4443 3.92786 38.4871 3.84388 38.4871 3.74051C38.4871 3.67591 38.4713 3.62423 38.4398 3.58546C38.4127 3.5424 38.3541 3.50148 38.264 3.46272C38.1738 3.42396 38.0385 3.3852 37.8582 3.34643C37.43 3.24738 37.1414 3.11171 36.9927 2.93943C36.8484 2.76716 36.7763 2.55397 36.7763 2.29987C36.7763 1.99839 36.8935 1.75289 37.1279 1.56339C37.3623 1.36958 37.6824 1.27268 38.0881 1.27268C38.3812 1.27268 38.6269 1.31575 38.8252 1.40188C39.0281 1.48802 39.2174 1.63876 39.3932 1.85411L38.7305 2.33863C38.6494 2.21804 38.5547 2.12759 38.4465 2.06729C38.3383 2.007 38.2301 1.97685 38.1219 1.97685C37.9822 1.97685 37.874 2.00485 37.7974 2.06083C37.7252 2.11252 37.6892 2.18358 37.6892 2.27402C37.6892 2.34293 37.7162 2.40323 37.7703 2.45491C37.8289 2.50229 37.9529 2.54966 38.1422 2.59704C38.6246 2.71763 38.9537 2.86622 39.1295 3.0428C39.3098 3.21938 39.4 3.44334 39.4 3.71467C39.4 3.91709 39.3391 4.10229 39.2174 4.27026C39.1002 4.43392 38.9379 4.56312 38.7305 4.65787C38.5232 4.75262 38.291 4.8 38.034 4.8Z" fill="#888888"/>
</svg>
